<svg width="100%" height="100%" viewBox="0 0 128 128" version="1.1" xmlns="http://www.w3.org/2000/svg" style="fill-rule:evenodd;clip-rule:evenodd;stroke-linecap:round;stroke-miterlimit:1.5;">
    <g transform="matrix(0.677966,0,0,0.674712,20.6102,19.1317)">
        <path d="M110,21L123,21L123,110L118.502,110C108.624,110.184 84.292,111.641 64,121C43.708,111.641 19.376,110.184 9.498,110L5,110L5,21L18,21L18,97C18,97 47.578,96.771 63.81,107.869L64,108C80.19,96.769 110,97 110,97L110,21Z"/>
    </g>
    <g transform="matrix(-0.677966,0,0,0.674712,107.39,19.1317)">
        <path d="M64,108L64,23C64,23 83.315,12.364 110,12L110,97C110,97 80.422,96.771 64.19,107.869L64,108C47.81,96.769 18,97 18,97L18,12C43.853,12.352 62.788,22.346 63.944,22.969L64,23L64,108" style="fill:none;stroke:black;stroke-width:4.17px;"/>
    </g>
</svg>
